<?xml version="1.0" encoding="utf-8"?>
<!-- Generator: Adobe Illustrator 22.1.0, SVG Export Plug-In . SVG Version: 6.00 Build 0)  -->
<svg version="1.1" id="Layer_1" xmlns="http://www.w3.org/2000/svg" xmlns:xlink="http://www.w3.org/1999/xlink" x="0px" y="0px"
	 viewBox="0 0 256 256" style="enable-background:new 0 0 256 256;" xml:space="preserve">
<style type="text/css">
	.st0{fill:#231F20;}
	.st1{fill:#FFEFE4;}
	.st2{fill:#69EBFC;}
	.st3{fill:#5FD4E3;}
	.st4{fill:#A1F1FC;}
	.st5{fill:#D476E2;}
	.st6{fill:#B665C2;}
	.st7{fill:#EA82FA;}
	.st8{fill:#FFF7F2;}
	.st9{fill:#FF8354;}
	.st10{fill:#FFA172;}
	.st11{fill:#6770E6;}
	.st12{fill:#5861C7;}
	.st13{fill:#E0734A;}
	.st14{fill:#EDD4C2;}
	.st15{fill:#CC6944;}
	.st16{fill:#858EFF;}
	.st17{fill:#C76642;}
	.st18{fill:#FFFFFF;}
	.st19{fill:#FFDEC7;}
	.st20{fill:#4E56B0;}
	.st21{fill:#94529E;}
	.st22{fill:#41B6C5;}
	.st23{fill:#9847A4;}
	.st24{fill:#C2552C;}
	.st25{fill:#CFB6A4;}
</style>
<g>
	<rect x="5" y="56" class="st14" width="246" height="200"/>
	<rect x="5" y="250" class="st25" width="246" height="6"/>
	<polygon class="st1" points="167,246 5,246 5,56 251,56 251,162 	"/>
	<path class="st5" d="M84.487,213.658c-5.6,0-10.969-0.734-16.1-2.2c-5.134-1.466-9.834-3.7-14.1-6.7
		c-4.269-3-8.034-6.766-11.3-11.3c-0.423-0.586-0.833-1.184-1.23-1.795c-4.419-6.797-1.361-15.961,6.171-18.961l0.583-0.232
		c5.812-2.316,12.323-0.035,15.722,5.218c1.331,2.057,2.882,3.814,4.654,5.271c4.131,3.4,9.331,5.1,15.6,5.1
		c2.8,0,5.465-0.431,8-1.3c2.531-0.865,4.731-2.1,6.6-3.7c1.866-1.6,3.366-3.5,4.5-5.7c1.131-2.2,1.7-4.7,1.7-7.5
		c0-5.866-2.169-10.465-6.5-13.8c-4.334-3.332-10.3-5-17.9-5h-1c-5.965,0-10.8-4.835-10.8-10.8v-2.2c0-5.965,4.835-10.8,10.8-10.8h0
		c2.666,0,5.266-0.331,7.8-1c2.531-0.666,4.766-1.7,6.7-3.1c1.931-1.4,3.465-3.2,4.6-5.4c1.131-2.2,1.7-4.766,1.7-7.7
		c0-4.531-1.6-8.231-4.8-11.1c-3.2-2.866-7.535-4.3-13-4.3c-5.869,0-10.369,1.568-13.5,4.7c-0.76,0.76-1.462,1.541-2.108,2.343
		c-3.547,4.407-9.49,6.075-14.727,3.937l0,0c-7.921-3.234-10.399-13.256-4.894-19.806c2.157-2.567,4.174-4.457,5.73-5.673
		c3.666-2.866,7.965-5.2,12.9-7c4.931-1.8,10.6-2.7,17-2.7c6.531,0,12.5,0.935,17.9,2.8c5.4,1.869,10.031,4.435,13.9,7.7
		c3.866,3.269,6.866,7.134,9,11.6c2.131,4.469,3.2,9.3,3.2,14.5c0,4-0.5,7.6-1.5,10.8c-1,3.2-2.3,6.069-3.9,8.6
		c-1.6,2.534-3.435,4.7-5.5,6.5c-2.069,1.8-4.169,3.234-6.3,4.3v1.6c6.4,2.535,11.7,6.6,15.9,12.2c4.2,5.6,6.3,12.668,6.3,21.2
		c0,6-1.134,11.5-3.4,16.5c-2.269,5-5.5,9.369-9.7,13.1c-4.2,3.734-9.234,6.634-15.1,8.7
		C98.218,212.623,91.686,213.658,84.487,213.658z"/>
	<path class="st5" d="M180.087,198.129v-93.672l-12.944,5.456c-6.233,2.627-13.419-0.259-16.104-6.467v0
		c-2.647-6.12,0.053-13.236,6.093-16.061l27.291-12.763c1.359-0.636,2.842-0.965,4.342-0.965h7.271
		c5.661,0,10.251,4.589,10.251,10.251v114.221c0,6.809-5.52,12.328-12.328,12.328h-1.544
		C185.606,210.458,180.087,204.938,180.087,198.129z"/>
	<polygon class="st2" points="167,246 167,162 251,162 	"/>
	<path class="st11" d="M256,56H0V16C0,7.163,7.163,0,16,0h224c8.837,0,16,7.163,16,16V56z"/>
	<path class="st16" d="M240,0H16C7.163,0,0,7.163,0,16v6C0,13.163,7.163,6,16,6h224c8.837,0,16,7.163,16,16v-6
		C256,7.163,248.837,0,240,0z"/>
	<circle class="st2" cx="40" cy="28" r="10"/>
	<circle class="st2" cx="216" cy="28" r="10"/>
</g>
</svg>
